<svg width="1561" height="617" viewBox="0 0 1561 617" fill="none" xmlns="http://www.w3.org/2000/svg">
<g filter="url(#filter0_d_4376_1156)">
<g clip-path="url(#clip0_4376_1156)">
<mask id="mask0_4376_1156" style="mask-type:luminance" maskUnits="userSpaceOnUse" x="4" y="0" width="1553" height="609">
<path d="M1557 0H4V609H1557V0Z" fill="white"/>
</mask>
<g mask="url(#mask0_4376_1156)">
<path d="M3.99809 -95.9482L3.99805 810.305" stroke="#4A4A4A" stroke-width="0.7" stroke-dasharray="6.72 6.72"/>
<path d="M51.0586 -95.9482V810.305" stroke="#4A4A4A" stroke-width="0.7" stroke-dasharray="6.72 6.72"/>
<path d="M98.1191 -95.9482V810.305" stroke="#4A4A4A" stroke-width="0.7" stroke-dasharray="6.72 6.72"/>
<path d="M145.18 -95.9482V810.305" stroke="#4A4A4A" stroke-width="0.7" stroke-dasharray="6.72 6.72"/>
<path d="M192.24 -95.9482V810.305" stroke="#4A4A4A" stroke-width="0.7" stroke-dasharray="6.72 6.72"/>
<path d="M239.301 -95.9482V810.305" stroke="#4A4A4A" stroke-width="0.7" stroke-dasharray="6.72 6.72"/>
<path d="M286.361 -95.9482V810.305" stroke="#4A4A4A" stroke-width="0.7" stroke-dasharray="6.72 6.72"/>
<path d="M333.422 -95.9482V810.305" stroke="#4A4A4A" stroke-width="0.7" stroke-dasharray="6.72 6.72"/>
<path d="M380.484 -95.9482V810.305" stroke="#4A4A4A" stroke-width="0.7" stroke-dasharray="6.72 6.72"/>
<path d="M427.545 -95.9482V810.305" stroke="#4A4A4A" stroke-width="0.7" stroke-dasharray="6.72 6.72"/>
<path d="M474.605 -95.9482V810.305" stroke="#4A4A4A" stroke-width="0.7" stroke-dasharray="6.72 6.72"/>
<path d="M521.666 -95.9482V810.305" stroke="#4A4A4A" stroke-width="0.7" stroke-dasharray="6.72 6.72"/>
<path d="M568.727 -95.9482V810.305" stroke="#4A4A4A" stroke-width="0.7" stroke-dasharray="6.72 6.72"/>
<path d="M615.787 -95.9482V810.305" stroke="#4A4A4A" stroke-width="0.7" stroke-dasharray="6.72 6.72"/>
<path d="M662.848 -95.9482V810.305" stroke="#4A4A4A" stroke-width="0.7" stroke-dasharray="6.72 6.72"/>
<path d="M709.908 -95.9482V810.305" stroke="#4A4A4A" stroke-width="0.7" stroke-dasharray="6.72 6.72"/>
<path d="M756.969 -95.9482V810.305" stroke="#4A4A4A" stroke-width="0.7" stroke-dasharray="6.72 6.72"/>
<path d="M804.029 -95.9482V810.305" stroke="#4A4A4A" stroke-width="0.7" stroke-dasharray="6.72 6.72"/>
<path d="M851.09 -95.9482V810.305" stroke="#4A4A4A" stroke-width="0.7" stroke-dasharray="6.72 6.72"/>
<path d="M898.15 -95.9482V810.305" stroke="#4A4A4A" stroke-width="0.7" stroke-dasharray="6.72 6.72"/>
<path d="M945.211 -95.9482V810.305" stroke="#4A4A4A" stroke-width="0.7" stroke-dasharray="6.72 6.72"/>
<path d="M992.271 -95.9482V810.305" stroke="#4A4A4A" stroke-width="0.7" stroke-dasharray="6.72 6.72"/>
<path d="M1039.33 -95.9482V810.305" stroke="#4A4A4A" stroke-width="0.7" stroke-dasharray="6.72 6.72"/>
<path d="M1086.39 -95.9482V810.305" stroke="#4A4A4A" stroke-width="0.7" stroke-dasharray="6.72 6.72"/>
<path d="M1133.45 -95.9482V810.305" stroke="#4A4A4A" stroke-width="0.7" stroke-dasharray="6.72 6.72"/>
<path d="M1180.52 -95.9482V810.305" stroke="#4A4A4A" stroke-width="0.7" stroke-dasharray="6.72 6.72"/>
<path d="M1227.58 -95.9482V810.305" stroke="#4A4A4A" stroke-width="0.7" stroke-dasharray="6.72 6.72"/>
<path d="M1274.64 -95.9482V810.305" stroke="#4A4A4A" stroke-width="0.7" stroke-dasharray="6.72 6.72"/>
<path d="M1321.7 -95.9482V810.305" stroke="#4A4A4A" stroke-width="0.7" stroke-dasharray="6.72 6.72"/>
<path d="M1368.76 -95.9482V810.305" stroke="#4A4A4A" stroke-width="0.7" stroke-dasharray="6.72 6.72"/>
<path d="M1415.82 -95.9482V810.305" stroke="#4A4A4A" stroke-width="0.7" stroke-dasharray="6.72 6.72"/>
<path d="M1462.88 -95.9482V810.305" stroke="#4A4A4A" stroke-width="0.7" stroke-dasharray="6.72 6.72"/>
<path d="M1509.94 -95.9482V810.305" stroke="#4A4A4A" stroke-width="0.7" stroke-dasharray="6.72 6.72"/>
<path d="M1557 -95.9482V810.305" stroke="#4A4A4A" stroke-width="0.7" stroke-dasharray="6.72 6.72"/>
<path d="M1528.76 27.754L32.9082 27.7539" stroke="#4A4A4A" stroke-width="0.7" stroke-dasharray="6.72 6.72"/>
<path d="M1528.76 74.8155L32.9082 74.8154" stroke="#4A4A4A" stroke-width="0.7" stroke-dasharray="6.72 6.72"/>
<path d="M1528.76 121.876H32.9082" stroke="#4A4A4A" stroke-width="0.7" stroke-dasharray="6.72 6.72"/>
<path d="M1528.76 168.937L32.9082 168.936" stroke="#4A4A4A" stroke-width="0.7" stroke-dasharray="6.72 6.72"/>
<path d="M1528.76 215.997H32.9082" stroke="#4A4A4A" stroke-width="0.7" stroke-dasharray="6.72 6.72"/>
<path d="M1528.76 263.058L32.9082 263.057" stroke="#4A4A4A" stroke-width="0.7" stroke-dasharray="6.72 6.72"/>
<path d="M1528.76 310.118H32.9082" stroke="#4A4A4A" stroke-width="0.7" stroke-dasharray="6.72 6.72"/>
<path d="M1528.76 357.18H32.9082" stroke="#4A4A4A" stroke-width="0.7" stroke-dasharray="6.72 6.72"/>
<path d="M1528.76 404.24H32.9082" stroke="#4A4A4A" stroke-width="0.7" stroke-dasharray="6.72 6.72"/>
<path d="M1528.76 451.301H32.9082" stroke="#4A4A4A" stroke-width="0.7" stroke-dasharray="6.72 6.72"/>
<path d="M1528.76 498.361H32.9082" stroke="#4A4A4A" stroke-width="0.7" stroke-dasharray="6.72 6.72"/>
<path d="M1528.76 545.422H32.9082" stroke="#4A4A4A" stroke-width="0.7" stroke-dasharray="6.72 6.72"/>
<path d="M1528.76 592.482H32.9082" stroke="#4A4A4A" stroke-width="0.7" stroke-dasharray="6.72 6.72"/>
<path d="M1557 0H4V609H1557V0Z" fill="url(#paint0_radial_4376_1156)"/>
</g>
</g>
</g>
<defs>
<filter id="filter0_d_4376_1156" x="0" y="0" width="1561" height="617" filterUnits="userSpaceOnUse" color-interpolation-filters="sRGB">
<feFlood flood-opacity="0" result="BackgroundImageFix"/>
<feColorMatrix in="SourceAlpha" type="matrix" values="0 0 0 0 0 0 0 0 0 0 0 0 0 0 0 0 0 0 127 0" result="hardAlpha"/>
<feOffset dy="4"/>
<feGaussianBlur stdDeviation="2"/>
<feComposite in2="hardAlpha" operator="out"/>
<feColorMatrix type="matrix" values="0 0 0 0 0 0 0 0 0 0 0 0 0 0 0 0 0 0 0.25 0"/>
<feBlend mode="normal" in2="BackgroundImageFix" result="effect1_dropShadow_4376_1156"/>
<feBlend mode="normal" in="SourceGraphic" in2="effect1_dropShadow_4376_1156" result="shape"/>
</filter>
<radialGradient id="paint0_radial_4376_1156" cx="0" cy="0" r="1" gradientUnits="userSpaceOnUse" gradientTransform="translate(780.5 304.5) rotate(90) scale(333.772 851.147)">
<stop stop-color="white" stop-opacity="0"/>
<stop offset="1" stop-color="white"/>
</radialGradient>
<clipPath id="clip0_4376_1156">
<rect width="1553" height="609" fill="white" transform="translate(4)"/>
</clipPath>
</defs>
</svg>
