<svg width="82" height="81" viewBox="0 0 82 81" fill="none" xmlns="http://www.w3.org/2000/svg">
<rect x="1.70297" y="1.20297" width="78.5941" height="78.5941" rx="39.297" fill="white" stroke="#D75337" stroke-width="2.40594"/>
<rect x="10.5" y="10" width="61.8019" height="61.8019" rx="30.901" fill="#FFF1EC"/>
<path d="M41.3569 43.8831C40.3012 43.8781 39.3818 43.6484 38.5986 43.1941C37.8282 42.7399 37.1174 41.9641 36.4659 40.8666L38.5966 39.5249C38.8906 39.9769 39.1914 40.3452 39.499 40.6299C39.8067 40.9146 40.1211 41.1221 40.4424 41.2523C40.7765 41.3827 41.1238 41.4487 41.4843 41.4504C41.8705 41.4522 42.2314 41.3638 42.567 41.1851C42.9026 40.9936 43.1678 40.7373 43.3624 40.4164C43.5699 40.0955 43.6747 39.7226 43.6767 39.2978C43.6787 38.8601 43.5968 38.4927 43.4308 38.1958C43.2648 37.8989 43.0213 37.6725 42.7002 37.5165C42.379 37.3605 41.9996 37.2814 41.5619 37.2794C41.3688 37.2785 41.1563 37.2968 40.9243 37.3343C40.7053 37.3719 40.4668 37.4351 40.2089 37.524C39.9639 37.6001 39.6995 37.7019 39.4157 37.8293L38.7482 36.0301L42.3393 32.1461L43.0706 32.6709L37.3934 32.5669L37.4052 30.0757L45.5353 30.1141L46.0517 31.1787L41.568 35.9855L40.9151 35.1906C41.0184 35.1396 41.186 35.0954 41.4179 35.0578C41.6627 35.0075 41.8817 34.9828 42.0748 34.9837C42.667 34.9865 43.2201 35.0985 43.7341 35.3198C44.248 35.5411 44.7036 35.8458 45.1009 36.2339C45.4982 36.622 45.805 37.0741 46.0215 37.5901C46.2508 38.1062 46.364 38.6603 46.3612 39.2525C46.357 40.1408 46.128 40.938 45.674 41.6439C45.233 42.3371 44.6318 42.8879 43.8702 43.2963C43.1216 43.6918 42.2839 43.8874 41.3569 43.8831Z" fill="#D75337"/>
<path d="M31.3825 51.2023L31.3925 49.0724L31.4338 49.3717L29.7182 46.9224L30.6459 46.9267L31.9552 48.8249L31.6684 48.8052L32.8673 46.9372L33.7584 46.9414L32.0926 49.4419L32.1861 49.0274L32.1759 51.2061L31.3825 51.2023ZM35.1292 51.22L35.1493 46.948L37.9445 46.9612L37.9411 47.6813L35.9271 47.6718L35.9138 50.5036L37.9521 50.5132L37.9487 51.2333L35.1292 51.22ZM35.504 49.3909L35.5073 48.6829L37.625 48.6929L37.6217 49.4009L35.504 49.3909ZM39.2608 51.2395L40.9471 46.9754L41.6916 46.9789L43.3254 51.2587L42.5015 51.2548L41.5975 48.8215C41.5774 48.7726 41.5493 48.6952 41.5132 48.5892C41.4811 48.4833 41.445 48.3692 41.4049 48.2469C41.3648 48.1206 41.3288 48.0045 41.2967 47.8986C41.2647 47.7886 41.2406 47.7091 41.2246 47.6602L41.3772 47.6548C41.3524 47.7361 41.3235 47.8275 41.2905 47.929C41.2574 48.0306 41.2224 48.1362 41.1852 48.2459C41.1481 48.3556 41.111 48.4612 41.0739 48.5627C41.0408 48.6643 41.0099 48.7557 40.981 48.8369L40.0542 51.2433L39.2608 51.2395ZM40.0222 50.2666L40.3001 49.5783L42.2469 49.5875L42.5366 50.2785L40.0222 50.2666ZM44.7915 51.2656L44.8117 46.9936L46.667 47.0023C46.9233 47.0035 47.157 47.0657 47.368 47.1887C47.579 47.3077 47.745 47.4713 47.8661 47.6793C47.9913 47.8834 48.0532 48.1135 48.052 48.3698C48.0509 48.614 47.9867 48.8395 47.8596 49.0464C47.7366 49.2492 47.569 49.4112 47.3569 49.5322C47.1488 49.6493 46.9146 49.7071 46.6542 49.7059L45.574 49.7008L45.5666 51.2693L44.7915 51.2656ZM47.2693 51.2773L46.1921 49.3437L47.0106 49.1949L48.2091 51.2878L47.2693 51.2773ZM45.5773 49.0112L46.6636 49.0163C46.7816 49.0169 46.8834 48.9909 46.9691 48.9384C47.0589 48.8819 47.1284 48.8049 47.1777 48.7075C47.227 48.6101 47.2519 48.5024 47.2525 48.3844C47.2531 48.2501 47.2231 48.134 47.1626 48.0361C47.102 47.9382 47.0169 47.8604 46.9073 47.803C46.7977 47.7455 46.6718 47.7164 46.5294 47.7157L45.5834 47.7113L45.5773 49.0112ZM51.1948 51.3569C50.9466 51.3557 50.7189 51.3241 50.5117 51.2621C50.3045 51.196 50.1178 51.0995 49.9516 50.9726C49.7854 50.8457 49.6376 50.6924 49.5083 50.5128L50.0298 49.9294C50.2278 50.207 50.4222 50.3991 50.6129 50.5058C50.8037 50.6125 51.0191 50.6664 51.2591 50.6675C51.3974 50.6682 51.5237 50.6484 51.6378 50.6083C51.7519 50.5641 51.8417 50.5055 51.9071 50.4326C51.9726 50.3556 52.0056 50.2682 52.006 50.1706C52.0063 50.1014 51.9924 50.0383 51.9642 49.9812C51.9401 49.9201 51.9017 49.867 51.849 49.822C51.7963 49.7729 51.7314 49.7278 51.6543 49.6868C51.5772 49.6457 51.4899 49.6107 51.3924 49.5818C51.2949 49.5529 51.1872 49.5259 51.0693 49.5009C50.8457 49.4551 50.6507 49.3952 50.4843 49.3212C50.3178 49.2431 50.1779 49.1489 50.0645 49.0385C49.9511 48.924 49.8683 48.7975 49.8161 48.6589C49.7638 48.5163 49.7381 48.3554 49.739 48.1764C49.7398 47.9974 49.7793 47.8328 49.8573 47.6826C49.9394 47.5325 50.0498 47.4028 50.1887 47.2936C50.3275 47.1844 50.4886 47.0997 50.672 47.0395C50.8554 46.9794 51.0529 46.9498 51.2644 46.9508C51.5045 46.9519 51.7179 46.9814 51.9048 47.0393C52.0958 47.0971 52.2622 47.1833 52.4041 47.2979C52.55 47.4085 52.6694 47.5433 52.7622 47.7024L52.2349 48.2187C52.1542 48.0922 52.0631 47.988 51.9618 47.9062C51.8605 47.8202 51.7509 47.7567 51.6331 47.7154C51.5153 47.6701 51.3913 47.6471 51.2611 47.6465C51.1147 47.6458 50.9864 47.6656 50.8764 47.7057C50.7704 47.7459 50.6867 47.8045 50.6253 47.8815C50.5639 47.9545 50.533 48.0439 50.5325 48.1496C50.5321 48.231 50.5501 48.3043 50.5864 48.3696C50.6227 48.4308 50.6733 48.486 50.7382 48.5351C50.8071 48.5842 50.8944 48.6274 51 48.6645C51.1056 48.7016 51.2255 48.7347 51.3596 48.7638C51.5832 48.8097 51.7843 48.8716 51.9629 48.9498C52.1416 49.0239 52.2938 49.1141 52.4194 49.2205C52.545 49.3228 52.6401 49.4412 52.7046 49.5758C52.769 49.7063 52.8009 49.8529 52.8001 50.0157C52.7988 50.2964 52.7305 50.5382 52.5953 50.741C52.4642 50.9397 52.2783 51.0934 52.0378 51.2022C51.7972 51.3068 51.5162 51.3584 51.1948 51.3569Z" fill="#181818"/>
<path d="M62.2729 35.638C62.174 35.447 62.1177 35.2369 62.1079 35.0221L61.8727 29.8705C61.8507 29.3881 61.5957 28.9465 61.189 28.6862L56.8456 25.9067C56.6645 25.7908 56.5107 25.637 56.3948 25.4559L53.6146 21.1119C53.3544 20.7052 52.9129 20.4503 52.4306 20.4282L47.2785 20.1924C47.0638 20.1825 46.8538 20.1262 46.6629 20.0274L42.0837 17.6558C41.655 17.4338 41.1451 17.4338 40.7164 17.6559L36.1372 20.028C35.9463 20.1269 35.7362 20.1832 35.5214 20.193L30.3694 20.4289C29.8872 20.451 29.4457 20.7058 29.1854 21.1125L26.4052 25.456C26.2893 25.637 26.1355 25.7908 25.9545 25.9067L21.611 28.6862C21.2043 28.9465 20.9494 29.3881 20.9273 29.8705L20.6921 35.0221C20.6823 35.2369 20.626 35.447 20.5271 35.638L18.155 40.2171C17.9329 40.6459 17.9329 41.1558 18.155 41.5846L20.5271 46.164C20.626 46.3549 20.6823 46.5649 20.6922 46.7797L20.928 51.9315C20.9501 52.4137 21.205 52.8552 21.6116 53.1155L25.9544 55.895C26.1355 56.0109 26.2893 56.1647 26.4052 56.3458L29.1848 60.6898C29.4451 61.0966 29.8867 61.3515 30.3691 61.3736L35.5209 61.6089C35.7357 61.6187 35.9458 61.675 36.1367 61.7739L40.7163 64.146C41.1451 64.3681 41.655 64.368 42.0837 64.1459L46.6628 61.7739C46.8537 61.675 47.0639 61.6187 47.2787 61.6089L52.4304 61.3736C52.9128 61.3515 53.3544 61.0966 53.6147 60.6898L56.3943 56.3459C56.5102 56.1648 56.6641 56.0109 56.8452 55.895L61.1888 53.116C61.5956 52.8558 61.8506 52.4141 61.8726 51.9317L62.1079 46.7803C62.1177 46.5655 62.174 46.3554 62.2729 46.1644L64.6451 41.5851C64.8672 41.1563 64.8672 40.6464 64.6451 40.2177L62.2729 35.638Z" stroke="#222222" stroke-width="2.97301"/>
<circle cx="41.5074" cy="41.0856" r="21.0587" stroke="#222222" stroke-width="2.47751"/>
</svg>
