<svg width="82" height="81" viewBox="0 0 82 81" fill="none" xmlns="http://www.w3.org/2000/svg">
<rect x="1.70297" y="1.20297" width="78.5941" height="78.5941" rx="39.297" fill="white" stroke="#D75337" stroke-width="2.40594"/>
<rect x="10.5" y="10" width="61.8019" height="61.8019" rx="30.901" fill="#FFF1EC"/>
<path d="M51.3051 40.2786V38.4309H55.0004L38.3713 21.8018L21.7422 38.4309H25.4375V51.3647C25.4375 52.3447 25.8269 53.2847 26.5199 53.9777C27.2129 54.6707 28.1528 55.06 29.1329 55.06H33.7521" stroke="#222222" stroke-width="2.80206" stroke-linecap="round" stroke-linejoin="round"/>
<path d="M32.8281 55.0598V43.9737C32.8281 42.9936 33.2175 42.0537 33.9105 41.3607C34.6035 40.6677 35.5434 40.2783 36.5235 40.2783H40.2188C41.1989 40.2783 42.1388 40.6677 42.8319 41.3607C43.5249 42.0537 43.9142 42.9936 43.9142 43.9737" stroke="#222222" stroke-width="2.80206" stroke-linecap="round" stroke-linejoin="round"/>
<path d="M43.5418 50.3739L51.3284 51.1542L46.6139 57.9838L46.6112 57.9877C46.1194 58.7079 46.1744 59.711 46.8008 60.362C47.4957 61.0842 48.6201 61.117 49.35 60.416L61.3137 49.278L61.3176 49.2743C62.5972 48.069 61.9377 45.7835 60.1046 45.6049C60.1041 45.6049 60.1035 45.6048 60.103 45.6048L52.3164 44.8245L57.0309 37.9949L57.0309 37.9949L57.0336 37.991C57.5245 37.2721 57.4705 36.2713 56.8473 35.6201C56.5177 35.2722 56.0625 35.0653 55.5768 35.056C55.0945 35.0467 54.6347 35.2332 54.2929 35.5644L42.3311 46.7008L42.3311 46.7007L42.3271 46.7044C41.0476 47.9097 41.7071 50.1952 43.5402 50.3738C43.5407 50.3738 43.5413 50.3739 43.5418 50.3739Z" fill="#D75337" stroke="#F9F9F9" stroke-width="1.84768"/>
</svg>
