<svg width="82" height="81" viewBox="0 0 82 81" fill="none" xmlns="http://www.w3.org/2000/svg">
<rect x="1.70297" y="1.20297" width="78.5941" height="78.5941" rx="39.297" fill="white" stroke="#D75337" stroke-width="2.40594"/>
<rect x="10.5" y="10" width="61.8019" height="61.8019" rx="30.901" fill="#FFF1EC"/>
<path d="M56.6483 55.1693L26.9052 25.4111L24.9746 27.3266L33.9941 36.3763C31.8372 38.4275 30.6608 41.61 30.8418 44.6265C30.9323 45.3806 31.0228 46.1348 31.2792 46.8889C31.4903 47.7939 31.8976 48.6988 32.3501 49.4982C33.979 52.1075 36.7994 53.9778 39.8311 54.3548C43.0588 54.7621 46.5127 54.1738 48.9863 51.9416C49.0919 51.8511 49.1673 51.7304 49.2728 51.6249L54.7328 57.0848L56.6483 55.1693ZM36.5732 43.993C36.2263 44.1438 35.8643 44.0534 35.5777 43.812C35.4921 43.7403 35.4206 43.6534 35.3666 43.5556C33.8583 41.61 33.4662 38.9252 34.2505 36.6025L36.2414 38.5934C36.2414 39.9961 36.4676 41.3988 36.9804 42.7412C37.0408 42.892 37.1011 43.0428 37.1011 43.2389C37.1011 43.5707 36.8749 43.8724 36.5732 43.993ZM45.1703 49.1966C44.748 49.5585 44.0542 49.9507 43.5113 50.1015C41.822 50.7048 40.1327 49.8602 39.1373 48.8647C40.9321 48.4424 42.003 47.1151 42.3197 45.7728C42.3951 45.4259 42.3951 45.0639 42.365 44.717L45.9245 48.2614C45.6982 48.6083 45.4569 48.9401 45.1703 49.1966ZM51.8369 46.5118L37.8552 32.5453C38.5641 31.3236 39.4691 30.2225 40.5852 29.3176C41.6561 28.4578 42.9079 27.6735 44.3408 27.3266C42.9079 30.1169 43.4057 33.7519 45.653 35.9539C46.6183 36.9042 47.7646 37.5527 48.7751 38.4577C49.1673 38.8498 49.5896 39.242 49.9365 39.6945C49.9365 39.6945 50.7811 40.9011 51.0979 41.5949L51.2939 41.987C51.8972 43.45 52.0481 45.0036 51.8369 46.5118Z" fill="#D75337"/>
<path d="M25.8066 26.0908L56.3651 56.6493" stroke="#222222" stroke-width="3.01654"/>
</svg>
