<svg width="82" height="81" viewBox="0 0 82 81" fill="none" xmlns="http://www.w3.org/2000/svg">
<rect x="1.70297" y="1.20297" width="78.5941" height="78.5941" rx="39.297" fill="white" stroke="#D75337" stroke-width="2.40594"/>
<rect x="10.5" y="10" width="61.8019" height="61.8019" rx="30.901" fill="#FFF1EC"/>
<path d="M41.6551 51.7565C41.9641 51.7568 42.2702 51.6959 42.5556 51.5775C42.8411 51.4591 43.1003 51.2853 43.3184 51.0663C43.5364 50.8474 43.7091 50.5874 43.8263 50.3014C43.9435 50.0155 44.0031 49.7092 44.0015 49.4001C44.0015 48.4888 43.4877 47.7421 42.741 47.335C42.4307 47.1704 42.324 47.0537 42.324 46.5788V41.43C42.324 40.9253 42.0332 40.625 41.6551 40.625C41.2869 40.625 40.9861 40.9258 40.9861 41.43V46.578C40.9861 47.0529 40.8794 47.1695 40.5691 47.3342C39.8228 47.7412 39.3086 48.4884 39.3086 49.3993C39.307 49.7084 39.3666 50.0147 39.4838 50.3006C39.6011 50.5866 39.7737 50.8465 39.9917 51.0655C40.2098 51.2845 40.469 51.4582 40.7545 51.5767C41.0399 51.6951 41.346 51.7559 41.6551 51.7557" fill="#D75337"/>
<path d="M41.5695 54.6907C44.4084 54.6907 46.7149 52.3379 46.7149 49.4425C46.7149 47.9142 46.0941 46.5771 44.9207 45.4915C44.7041 45.2903 44.6549 45.1796 44.6549 44.8781L44.6746 35.8501C44.6746 33.7491 43.4226 32.3516 41.5695 32.3516C39.7064 32.3516 38.4543 33.7491 38.4543 35.8501L38.4644 44.8781C38.4644 45.1796 38.4152 45.2903 38.2078 45.4915C37.0252 46.5771 36.4141 47.9142 36.4141 49.4421C36.4141 52.3375 38.7104 54.6907 41.5695 54.6907ZM41.5695 53.2318C39.5192 53.2318 37.8533 51.5229 37.8533 49.4421C37.8533 48.1853 38.4349 47.0494 39.4797 46.3356C39.7854 46.1242 39.9036 45.9333 39.9036 45.5211V35.9105C39.9036 34.6439 40.5837 33.8293 41.5691 33.8293C42.5453 33.8293 43.2157 34.6439 43.2157 35.9105V45.5215C43.2157 45.9337 43.3338 46.1246 43.6396 46.3356C44.6843 47.0498 45.266 48.1857 45.266 49.4425C45.266 51.5233 43.6102 53.2318 41.5695 53.2318Z" fill="#D75337"/>
<path d="M26.4395 39.5578V55.1501C26.4395 56.724 27.7154 57.9999 29.2893 57.9999H53.513C55.0869 57.9999 56.3628 56.724 56.3628 55.1501V39.5578C56.3628 38.7883 56.0516 38.0515 55.5 37.5149L43.3881 25.7344C42.282 24.6585 40.5203 24.6585 39.4141 25.7344L27.3023 37.5149C26.7507 38.0515 26.4395 38.7883 26.4395 39.5578Z" stroke="#222222" stroke-width="2.5"/>
</svg>
