<svg width="82" height="81" viewBox="0 0 82 81" fill="none" xmlns="http://www.w3.org/2000/svg">
<rect x="1.70297" y="1.20297" width="78.5941" height="78.5941" rx="39.297" fill="white" stroke="#D75337" stroke-width="2.40594"/>
<rect x="10.5" y="10" width="61.8019" height="61.8019" rx="30.901" fill="#FFF1EC"/>
<path d="M41.7561 28.3608L41.7561 28.3608L32.2482 34.6307L32.2459 34.6322C31.9663 34.8157 31.6391 34.9132 31.3047 34.9127M41.7561 28.3608L31.3063 33.599M41.7561 28.3608C42.7255 27.7215 44.0191 28.4176 44.0191 29.5797V52.2217C44.0191 53.3847 42.7261 54.0803 41.7561 53.4406L41.7559 53.4405L32.2523 47.176M41.7561 28.3608L32.2523 47.176M31.3047 34.9127C31.3038 34.9127 31.3029 34.9127 31.302 34.9127L31.3063 33.599M31.3047 34.9127H31.3063V33.599M31.3047 34.9127H26.7101C25.9025 34.9127 25.1281 35.2335 24.557 35.8045C23.986 36.3755 23.6652 37.15 23.6652 37.9575V43.8439C23.6652 44.6514 23.986 45.4259 24.557 45.9969C25.1281 46.5679 25.9025 46.8887 26.7101 46.8887H31.3063H31.3152V46.8888C31.6474 46.891 31.9717 46.99 32.2485 47.1735L32.2464 47.1721L31.5234 48.2689M31.3063 33.599H26.7101C25.5541 33.599 24.4455 34.0582 23.6281 34.8756C22.8108 35.693 22.3516 36.8016 22.3516 37.9575V43.8439C22.3516 44.9998 22.8108 46.1084 23.6281 46.9258C24.4455 47.7432 25.5541 48.2024 26.7101 48.2024H31.3063C31.3836 48.2029 31.4591 48.226 31.5234 48.2689M31.5234 48.2689L32.2523 47.176M31.5234 48.2689L41.0329 54.5373L32.2523 47.176" stroke="#222222" stroke-width="2.62731"/>
<path d="M50.4297 35.5615L60.4495 45.5814" stroke="#D75337" stroke-width="2.62731" stroke-linecap="round"/>
<path d="M60.4492 35.5615L50.4294 45.5814" stroke="#D75337" stroke-width="2.62731" stroke-linecap="round"/>
</svg>
