<svg width="40" height="39" viewBox="0 0 40 39" fill="none" xmlns="http://www.w3.org/2000/svg">
<circle cx="19.7846" cy="19.5883" r="19.3529" fill="#F4EFF5"/>
<path d="M22.8399 19.691C22.8399 19.8267 22.8132 19.9611 22.7612 20.0865C22.7093 20.2119 22.6331 20.3259 22.5372 20.4219C22.4412 20.5178 22.3272 20.594 22.2018 20.6459C22.0764 20.6979 21.942 20.7246 21.8063 20.7246C21.6706 20.7246 21.5362 20.6979 21.4108 20.6459C21.2854 20.594 21.1714 20.5178 21.0754 20.4219C20.9795 20.3259 20.9033 20.2119 20.8514 20.0865C20.7994 19.9611 20.7727 19.8267 20.7727 19.691C20.7727 19.4169 20.8816 19.154 21.0754 18.9601C21.2693 18.7663 21.5322 18.6574 21.8063 18.6574C22.0804 18.6574 22.3433 18.7663 22.5372 18.9601C22.731 19.154 22.8399 19.4169 22.8399 19.691ZM18.8681 8.68529C18.7678 8.66373 18.6638 8.66487 18.5639 8.68864C18.4641 8.7124 18.3707 8.75819 18.2908 8.82265C18.2109 8.88711 18.1464 8.96862 18.102 9.06121C18.0577 9.1538 18.0346 9.25514 18.0344 9.35781V30.0297C18.0343 30.1325 18.0573 30.234 18.1016 30.3267C18.1459 30.4195 18.2104 30.5012 18.2903 30.5658C18.3702 30.6304 18.4636 30.6763 18.5636 30.7002C18.6636 30.724 18.7676 30.7252 18.8681 30.7036L28.515 28.635C28.6691 28.6016 28.8071 28.5163 28.9059 28.3934C29.0048 28.2705 29.0584 28.1174 29.058 27.9598V11.4222C29.0577 11.2648 29.0036 11.1122 28.9045 10.9899C28.8055 10.8675 28.6676 10.7828 28.5136 10.7497L18.8681 8.68529ZM19.4125 29.1766V10.2095L27.6813 11.9804V27.4044L19.4125 29.1766ZM16.659 29.3351V27.957H11.1438V11.4264H16.659V10.0483H10.4547C10.2719 10.0483 10.0967 10.1209 9.96745 10.2501C9.83822 10.3793 9.76562 10.5546 9.76562 10.7373V28.6461C9.76562 28.8288 9.83822 29.0041 9.96745 29.1333C10.0967 29.2625 10.2719 29.3351 10.4547 29.3351H16.659Z" fill="#573C63"/>
</svg>
